#!OML:ASF X:\für Bonn\!DataBase\2005_08_11_Bastian_Final\c3d\Bastian.ASF
:FULLY-SPECIFIED
:DEGREES
79
root -1.81952 16.5559 -14.0122 156.207 -11.3429 -174.481
lowerback 22.969 -0.906248 1.6569
upperback 9.01324 -2.63103 -1.1988
thorax -3.04057 -1.99798 -1.53552
lowerneck -6.01497 -7.75151 -3.64844
upperneck -5.73388 -10.9085 16.152
head 0.446516 -5.8604 5.10727
rclavicle 6.95746e-015 1.66979e-014
rhumerus -14.2185 35.2954 -88.8344
rradius 123.153
rwrist 4.95668
rhand -23.7429 13.0825
rfingers 7.12502
rthumb 2.72568 -16.8798
lclavicle 6.95746e-015 1.66979e-014
lhumerus -1.76984 -55.7103 89.1882
lradius 124.221
lwrist 36.8738
lhand -7.33025 -17.2847
lfingers 7.12502
lthumb 18.5532 11.8505
rfemur -9.82481 -4.49374 26.7135
rtibia 43.9015
rfoot -184.717 -185.789
rtoes 3.4645
lfemur -11.5913 -5.62463 -9.83327
ltibia 103.784
lfoot 5.84675 -17.1745
ltoes -39.8657
80
root -1.81268 16.5748 -14.0986 154.726 -10.8082 -174.655
lowerback 24.4136 -0.539648 1.79521
upperback 9.42498 -2.31394 -1.36313
thorax -3.29414 -1.92066 -1.8362
lowerneck -5.79361 -7.81707 -4.04872
upperneck -5.74461 -10.9856 16.6134
head 0.46938 -5.90691 5.31264
rclavicle 1.39149e-015 -9.54166e-015
rhumerus -13.6352 35.2424 -88.4533
rradius 123.144
rwrist 4.56271
rhand -23.3928 12.8433
rfingers 7.12502
rthumb 3.06374 -17.1144
lclavicle 1.39149e-015 -9.54166e-015
lhumerus -0.564852 -55.1705 87.8531
lradius 124.104
lwrist 36.8805
lhand -7.14294 -16.8767
lfingers 7.12502
lthumb 18.7333 12.2412
rfemur -7.51258 -4.37293 26.6985
rtibia 43.3143
rfoot -184.94 -185.626
rtoes 3.55638
lfemur -14.0867 -4.66822 -9.69122
ltibia 107.548
lfoot 4.21526 -17.0392
ltoes -40.352
81
root -1.80711 16.5904 -14.1838 153.259 -10.2322 -174.862
lowerback 25.7937 -0.138309 1.98236
upperback 9.84589 -1.95563 -1.5533
thorax -3.48713 -1.82706 -2.21909
lowerneck -5.47885 -7.90012 -4.53013
upperneck -5.78575 -11.0843 17.1719
head 0.482583 -5.96996 5.56435
rclavicle -8.94531e-016 7.95139e-015
rhumerus -13.1264 35.0645 -88.1435
rradius 123.143
rwrist 4.29348
rhand -22.9882 12.6618
rfingers 7.12502
rthumb 3.45452 -17.29
lclavicle -8.94531e-016 7.95139e-015
lhumerus 0.654957 -54.6734 86.4839
lradius 123.973
lwrist 36.7964
lhand -7.06971 -16.4955
lfingers 7.12502
lthumb 18.8038 12.6156
rfemur -5.21569 -4.19752 26.6752
rtibia 42.7173
rfoot -185.154 -185.446
rtoes 3.52465
lfemur -16.6637 -3.53097 -9.50396
ltibia 111.061
lfoot 2.61446 -16.9159
ltoes -40.4179
82
root -1.80199 16.6004 -14.2692 151.702 -9.6333 -175.096
lowerback 27.1962 0.294193 2.2005
upperback 10.32 -1.58008 -1.73946
thorax -3.60962 -1.73715 -2.63469
lowerneck -5.08566 -7.99283 -5.11369
upperneck -5.88496 -11.1901 17.8101
head 0.479617 -6.04298 5.86224
rclavicle 4.87022e-015 -2.38542e-014
rhumerus -12.6401 34.8351 -87.8359
rradius 123.184
rwrist 4.06771
rhand -22.5228 12.4799
rfingers 7.12502
rthumb 3.90394 -17.464
lclavicle 4.87022e-015 -2.38542e-014
lhumerus 1.90427 -54.1637 85.1379
lradius 123.809
lwrist 36.5872
lhand -7.11268 -16.1069
lfingers 7.12502
lthumb 18.7624 13.0082
rfemur -2.81818 -4.00129 26.6395
rtibia 42.1144
rfoot -185.37 -185.257
rtoes 3.64156
lfemur -19.2589 -2.2481 -9.28168
ltibia 114.345
lfoot 1.05298 -16.8362
ltoes -39.9346
83
root -1.79947 16.6077 -14.3562 150.023 -9.02435 -175.409
lowerback 28.6849 0.757397 2.44028
upperback 10.8277 -1.19465 -1.96562
thorax -3.71055 -1.65528 -3.12317
lowerneck -4.56152 -8.09039 -5.70655
upperneck -6.05796 -11.302 18.4859
head 0.439062 -6.13085 6.18287
rclavicle 2.34566e-014 -3.18055e-015
rhumerus -12.2367 34.5912 -87.5923
rradius 123.296
rwrist 3.90351
rhand -22.1023 12.2154
rfingers 7.12502
rthumb 4.31001 -17.7208
lclavicle 2.34566e-014 -3.18055e-015
lhumerus 2.98076 -53.6369 83.8911
lradius 123.641
lwrist 36.2597
lhand -7.21581 -15.7963
lfingers 7.12502
lthumb 18.6632 13.3284
rfemur -0.263374 -3.80439 26.5193
rtibia 41.491
rfoot -185.566 -185.012
rtoes 3.89845
lfemur -21.8597 -0.852389 -9.14783
ltibia 117.372
lfoot -0.374749 -16.8098
ltoes -38.9253
84
root -1.79824 16.6166 -14.4453 148.224 -8.39188 -175.791
lowerback 30.235 1.27402 2.66874
upperback 11.3804 -0.781557 -2.17424
thorax -3.75748 -1.57633 -3.61013
lowerneck -3.97531 -8.18813 -6.36398
upperneck -6.23017 -11.4144 19.1813
head 0.395506 -6.22072 6.52514
rclavicle 3.43897e-014 9.54166e-015
rhumerus -11.8132 34.3139 -87.3495
rradius 123.407
rwrist 3.83118
rhand -21.608 11.8893
rfingers 7.12502
rthumb 4.78727 -18.0366
lclavicle 3.43897e-014 9.54166e-015
lhumerus 3.93894 -53.1026 82.8063
lradius 123.422
lwrist 35.7731
lhand -7.34612 -15.5767
lfingers 7.12502
lthumb 18.5379 13.56
rfemur 2.46291 -3.56329 26.3518
rtibia 40.816
rfoot -185.747 -184.771
rtoes 4.21427
lfemur -24.5082 0.675625 -9.09638
ltibia 120.11
lfoot -1.54167 -16.9048
ltoes -37.6816
85
root -1.79868 16.6278 -14.5355 146.373 -7.73278 -176.229
lowerback 31.7988 1.82318 2.93904
upperback 11.9704 -0.355161 -2.40764
thorax -3.73375 -1.50348 -4.17024
lowerneck -3.41024 -8.28181 -6.87891
upperneck -6.41728 -11.5326 19.8066
head 0.339803 -6.31865 6.82503
rclavicle 1.07344e-014 4.77083e-015
rhumerus -11.336 34.0793 -87.0721
rradius 123.475
rwrist 3.84737
rhand -21.2677 11.5714
rfingers 7.12502
rthumb 5.11585 -18.3469
lclavicle 1.07344e-014 4.77083e-015
lhumerus 4.82601 -52.5828 81.7537
lradius 123.209
lwrist 35.1729
lhand -7.53133 -15.3805
lfingers 7.12502
lthumb 18.3597 13.773
rfemur 5.28451 -3.30928 26.1386
rtibia 40.0962
rfoot -185.901 -184.465
rtoes 4.67055
lfemur -27.3137 2.35426 -9.11397
ltibia 122.537
lfoot -2.30102 -17.1257
ltoes -36.2903
86
root -1.80038 16.6392 -14.6262 144.481 -7.03744 -176.666
lowerback 33.7798 2.37281 3.26396
upperback 12.2272 0.0942889 -2.78094
thorax -3.74255 -1.41716 -4.56297
lowerneck -2.79258 -8.37176 -7.48454
upperneck -6.60304 -11.6492 20.4855
head 0.286655 -6.41819 7.16135
rclavicle -4.19436e-014 -1.59028e-015
rhumerus -10.8682 33.8812 -86.7367
rradius 123.557
rwrist 3.86432
rhand -21.0011 11.2049
rfingers 7.12502
rthumb 5.37328 -18.707
lclavicle -4.19436e-014 -1.59028e-015
lhumerus 5.63265 -52.0271 80.8495
lradius 122.965
lwrist 34.5145
lhand -7.70928 -15.1779
lfingers 7.12502
lthumb 18.1886 13.9918
rfemur 8.15887 -3.10592 25.9306
rtibia 39.3502
rfoot -186.04 -184.095
rtoes 5.11427
lfemur -30.3098 4.1332 -9.13259
ltibia 124.626
lfoot -2.59556 -17.3638
ltoes -33.8975
87
root -1.80655 16.6453 -14.7169 142.604 -6.23276 -177.168
lowerback 35.4065 2.96525 3.67818
upperback 12.7703 0.579092 -3.02879
thorax -3.66525 -1.32882 -5.19413
lowerneck -2.14439 -8.46892 -8.06332
upperneck -6.80393 -11.7793 21.1277
head 0.223268 -6.52789 7.48638
rclavicle -2.98177e-014 -3.65764e-014
rhumerus -10.4188 33.6837 -86.4118
rradius 123.627
rwrist 3.92704
rhand -20.7808 10.8465
rfingers 7.12502
rthumb 5.58598 -19.0599
lclavicle -2.98177e-014 -3.65764e-014
lhumerus 6.53158 -51.4873 79.8342
lradius 122.7
lwrist 33.8646
lhand -7.94773 -14.9989
lfingers 7.12502
lthumb 17.9591 14.192
rfemur 10.9942 -2.90876 25.6612
rtibia 38.6279
rfoot -186.166 -183.555
rtoes 5.54987
lfemur -33.4859 6.09833 -9.23661
ltibia 126.295
lfoot -3.03767 -17.5637
ltoes -32.8259
